<svg width="72" height="48" viewBox="0 0 72 48" fill="none" xmlns="http://www.w3.org/2000/svg">
<path fill-rule="evenodd" clip-rule="evenodd" d="M50.195 34.2756C50.1381 34.657 50.096 35.0229 50.0612 35.3817C49.0747 37.2454 47.8812 38.5038 46.7438 39.3646C44.6539 40.945 43.7066 39.3451 43.8929 37.716C44.2433 34.654 44.974 30.1282 45.7107 25.504L51.5937 24.6074L50.195 34.2756ZM68.1498 17.3729L58.2382 18.8833C58.6492 16.1518 59.0159 13.5571 59.2617 11.4014C59.5208 9.12759 57.7458 7.34102 55.5573 7.67444L54.679 7.80832C54.2776 7.86954 53.952 8.2166 53.9043 8.633L52.2905 19.7898L46.4696 20.6765C46.8891 17.9446 47.2632 15.3492 47.5093 13.1924C47.7688 10.9182 45.9935 9.13165 43.8045 9.46543L42.9267 9.59931C42.526 9.66054 42.1992 10.008 42.1527 10.424L40.5381 21.5805L35.917 22.2849C35.6368 22.3273 35.4239 22.5958 35.4402 22.8839L35.4631 23.263C35.5866 25.3443 37.3286 26.7816 39.3531 26.4729L39.841 26.3984L38.4427 36.0666C38.4275 36.1655 38.4179 36.2588 38.405 36.3561C37.3504 38.7096 35.9688 40.217 34.6625 41.2058C32.573 42.7858 31.626 41.1858 31.8119 39.5568C32.4961 33.5767 33.3747 32.9102 34.1702 25.9307C34.4296 23.6569 32.655 21.87 30.4654 22.2038L29.5875 22.3376C29.1865 22.3985 28.8608 22.7459 28.8131 23.1623L26.3617 37.9074C25.6609 42.5925 26.5906 45.6652 30.4702 45.0551C30.5781 45.0478 34.6732 44.887 38.3266 40.0561C38.6648 42.3583 39.9356 43.6256 42.5511 43.214C42.6561 43.207 46.5494 43.0403 50.1293 38.5584C50.5314 40.6728 51.8015 41.8165 54.3031 41.423C54.3815 41.4178 56.3464 41.1563 58.9212 39.279C59.1833 39.088 59.2532 38.7195 59.0717 38.4485C59.0639 38.4378 59.0562 38.426 59.0484 38.4145C58.6747 37.8676 58.2563 37.9089 57.6701 38.2021C56.7249 38.676 55.1418 39.8714 55.6456 35.9254C56.0359 32.8667 56.7663 28.3369 57.4934 23.7085L71.5226 21.5705C71.8028 21.5281 72.0161 21.2592 71.9987 20.9712L71.9725 20.5271C71.8509 18.482 70.1391 17.0698 68.1498 17.3729Z" fill="white"/>
<path fill-rule="evenodd" clip-rule="evenodd" d="M32.61 11.1843C29.989 11.3366 28.4155 14.957 29.2005 17.164C29.4996 18.006 30.176 18.7009 31.0376 18.8595C31.8463 19.0085 32.7286 18.6743 33.4095 18.1115C34.8414 16.9276 35.7237 14.8235 35.1708 13.0793C34.793 11.8873 33.9861 11.1043 32.61 11.1843Z" fill="white"/>
<mask id="mask0" mask-type="alpha" maskUnits="userSpaceOnUse" x="0" y="0" width="41" height="48">
<path d="M0 0L40.8872 0L40.8872 48L0 48L0 0Z" fill="white"/>
</mask>
<g mask="url(#mask0)">
<path fill-rule="evenodd" clip-rule="evenodd" d="M26.3785 27.9235L26.3526 27.4795C26.2306 25.434 24.5192 24.0222 22.5288 24.3253L15.6245 25.3776L17.6841 10.4842C17.7591 9.81925 17.6268 9.21069 17.3669 8.68807C25.0367 7.16743 37.0422 5.19571 40.0348 4.97737C40.5282 4.94159 40.9234 4.49679 40.8845 4.01843C40.8738 3.88234 40.8613 3.73481 40.8483 3.5788C40.5874 0.492878 37.8484 -0.218946 35.2507 0.0532434C13.5819 2.32075 -3.32047 8.61652 0.556195 16.1729C0.970179 16.9806 1.66286 17.7127 2.36922 18.2634C2.95139 18.717 4.17338 19.5959 4.49237 19.3274C4.95626 18.9376 4.74446 18.2597 4.37224 17.8016C4.0344 17.3849 3.30291 16.9626 3.12474 16.3902C2.82239 15.4224 3.11476 14.5461 3.79082 13.7741C5.53362 11.7851 9.08094 10.8132 11.3494 10.0656C11.5334 10.0051 11.7704 9.93727 12.0339 9.86609L9.75367 26.272L7.20619 26.6603C6.92601 26.7024 6.71236 26.9713 6.72973 27.2597L6.75191 27.6388C6.84321 29.1731 7.81718 30.3515 9.13269 30.7439L7.3326 43.6932C7.03653 46.2938 9.06837 48.3356 11.5726 47.9542L12.0077 47.8874C12.3141 47.841 12.5628 47.5758 12.5991 47.2579L14.9588 30.1903L25.9016 28.5229C26.1818 28.4801 26.3958 28.2116 26.3785 27.9235Z" fill="white"/>
</g>
</svg>
